<mxfile host="app.diagrams.net" agent="Mozilla/5.0 (Windows NT 10.0; Win64; x64) AppleWebKit/537.36 (KHTML, like Gecko) Chrome/133.0.0.0 Safari/537.36" version="26.0.15">
  <diagram name="Page-1" id="v2NK3_BSvw_UwsJmfcpY">
    <mxGraphModel dx="989" dy="509" grid="1" gridSize="10" guides="1" tooltips="1" connect="1" arrows="1" fold="1" page="1" pageScale="1" pageWidth="2339" pageHeight="3300" math="0" shadow="0">
      <root>
        <mxCell id="0" />
        <mxCell id="1" parent="0" />
        <mxCell id="jiN-n-44MIhKHCmVLJ7F-1" value="Cours" style="swimlane;fontStyle=0;childLayout=stackLayout;horizontal=1;startSize=30;horizontalStack=0;resizeParent=1;resizeParentMax=0;resizeLast=0;collapsible=1;marginBottom=0;whiteSpace=wrap;html=1;" vertex="1" parent="1">
          <mxGeometry x="410" y="345" width="120" height="90" as="geometry" />
        </mxCell>
        <mxCell id="jiN-n-44MIhKHCmVLJ7F-2" value="&lt;u&gt;&lt;b&gt;id&lt;/b&gt;&lt;/u&gt;" style="text;strokeColor=none;fillColor=none;align=left;verticalAlign=middle;spacingLeft=4;spacingRight=4;overflow=hidden;points=[[0,0.5],[1,0.5]];portConstraint=eastwest;rotatable=0;whiteSpace=wrap;html=1;" vertex="1" parent="jiN-n-44MIhKHCmVLJ7F-1">
          <mxGeometry y="30" width="120" height="30" as="geometry" />
        </mxCell>
        <mxCell id="jiN-n-44MIhKHCmVLJ7F-3" value="Nom" style="text;strokeColor=none;fillColor=none;align=left;verticalAlign=middle;spacingLeft=4;spacingRight=4;overflow=hidden;points=[[0,0.5],[1,0.5]];portConstraint=eastwest;rotatable=0;whiteSpace=wrap;html=1;" vertex="1" parent="jiN-n-44MIhKHCmVLJ7F-1">
          <mxGeometry y="60" width="120" height="30" as="geometry" />
        </mxCell>
        <mxCell id="jiN-n-44MIhKHCmVLJ7F-5" value="Client" style="swimlane;fontStyle=0;childLayout=stackLayout;horizontal=1;startSize=30;horizontalStack=0;resizeParent=1;resizeParentMax=0;resizeLast=0;collapsible=1;marginBottom=0;whiteSpace=wrap;html=1;" vertex="1" parent="1">
          <mxGeometry x="778" y="130" width="140" height="180" as="geometry" />
        </mxCell>
        <mxCell id="jiN-n-44MIhKHCmVLJ7F-6" value="&lt;u&gt;&lt;b&gt;Id&lt;/b&gt;&lt;/u&gt;" style="text;strokeColor=none;fillColor=none;align=left;verticalAlign=middle;spacingLeft=4;spacingRight=4;overflow=hidden;points=[[0,0.5],[1,0.5]];portConstraint=eastwest;rotatable=0;whiteSpace=wrap;html=1;" vertex="1" parent="jiN-n-44MIhKHCmVLJ7F-5">
          <mxGeometry y="30" width="140" height="30" as="geometry" />
        </mxCell>
        <mxCell id="jiN-n-44MIhKHCmVLJ7F-7" value="Nom" style="text;strokeColor=none;fillColor=none;align=left;verticalAlign=middle;spacingLeft=4;spacingRight=4;overflow=hidden;points=[[0,0.5],[1,0.5]];portConstraint=eastwest;rotatable=0;whiteSpace=wrap;html=1;" vertex="1" parent="jiN-n-44MIhKHCmVLJ7F-5">
          <mxGeometry y="60" width="140" height="30" as="geometry" />
        </mxCell>
        <mxCell id="jiN-n-44MIhKHCmVLJ7F-8" value="Prenom" style="text;strokeColor=none;fillColor=none;align=left;verticalAlign=middle;spacingLeft=4;spacingRight=4;overflow=hidden;points=[[0,0.5],[1,0.5]];portConstraint=eastwest;rotatable=0;whiteSpace=wrap;html=1;" vertex="1" parent="jiN-n-44MIhKHCmVLJ7F-5">
          <mxGeometry y="90" width="140" height="30" as="geometry" />
        </mxCell>
        <mxCell id="jiN-n-44MIhKHCmVLJ7F-42" value="Age" style="text;strokeColor=none;fillColor=none;align=left;verticalAlign=middle;spacingLeft=4;spacingRight=4;overflow=hidden;points=[[0,0.5],[1,0.5]];portConstraint=eastwest;rotatable=0;whiteSpace=wrap;html=1;" vertex="1" parent="jiN-n-44MIhKHCmVLJ7F-5">
          <mxGeometry y="120" width="140" height="30" as="geometry" />
        </mxCell>
        <mxCell id="jiN-n-44MIhKHCmVLJ7F-43" value="Genre" style="text;strokeColor=none;fillColor=none;align=left;verticalAlign=middle;spacingLeft=4;spacingRight=4;overflow=hidden;points=[[0,0.5],[1,0.5]];portConstraint=eastwest;rotatable=0;whiteSpace=wrap;html=1;" vertex="1" parent="jiN-n-44MIhKHCmVLJ7F-5">
          <mxGeometry y="150" width="140" height="30" as="geometry" />
        </mxCell>
        <mxCell id="jiN-n-44MIhKHCmVLJ7F-9" value="Reservation" style="swimlane;fontStyle=0;childLayout=stackLayout;horizontal=1;startSize=30;horizontalStack=0;resizeParent=1;resizeParentMax=0;resizeLast=0;collapsible=1;marginBottom=0;whiteSpace=wrap;html=1;" vertex="1" parent="1">
          <mxGeometry x="1180" y="340" width="110" height="90" as="geometry" />
        </mxCell>
        <mxCell id="jiN-n-44MIhKHCmVLJ7F-10" value="&lt;u&gt;&lt;b&gt;Id&lt;/b&gt;&lt;/u&gt;" style="text;strokeColor=none;fillColor=none;align=left;verticalAlign=middle;spacingLeft=4;spacingRight=4;overflow=hidden;points=[[0,0.5],[1,0.5]];portConstraint=eastwest;rotatable=0;whiteSpace=wrap;html=1;" vertex="1" parent="jiN-n-44MIhKHCmVLJ7F-9">
          <mxGeometry y="30" width="110" height="30" as="geometry" />
        </mxCell>
        <mxCell id="jiN-n-44MIhKHCmVLJ7F-12" value="Nom" style="text;strokeColor=none;fillColor=none;align=left;verticalAlign=middle;spacingLeft=4;spacingRight=4;overflow=hidden;points=[[0,0.5],[1,0.5]];portConstraint=eastwest;rotatable=0;whiteSpace=wrap;html=1;" vertex="1" parent="jiN-n-44MIhKHCmVLJ7F-9">
          <mxGeometry y="60" width="110" height="30" as="geometry" />
        </mxCell>
        <mxCell id="jiN-n-44MIhKHCmVLJ7F-13" value="Crenaux" style="swimlane;fontStyle=0;childLayout=stackLayout;horizontal=1;startSize=30;horizontalStack=0;resizeParent=1;resizeParentMax=0;resizeLast=0;collapsible=1;marginBottom=0;whiteSpace=wrap;html=1;" vertex="1" parent="1">
          <mxGeometry x="790" y="340" width="116" height="120" as="geometry" />
        </mxCell>
        <mxCell id="jiN-n-44MIhKHCmVLJ7F-14" value="&lt;b&gt;&lt;u&gt;Id&lt;/u&gt;&lt;/b&gt;" style="text;strokeColor=none;fillColor=none;align=left;verticalAlign=middle;spacingLeft=4;spacingRight=4;overflow=hidden;points=[[0,0.5],[1,0.5]];portConstraint=eastwest;rotatable=0;whiteSpace=wrap;html=1;" vertex="1" parent="jiN-n-44MIhKHCmVLJ7F-13">
          <mxGeometry y="30" width="116" height="30" as="geometry" />
        </mxCell>
        <mxCell id="jiN-n-44MIhKHCmVLJ7F-15" value="Debut" style="text;strokeColor=none;fillColor=none;align=left;verticalAlign=middle;spacingLeft=4;spacingRight=4;overflow=hidden;points=[[0,0.5],[1,0.5]];portConstraint=eastwest;rotatable=0;whiteSpace=wrap;html=1;" vertex="1" parent="jiN-n-44MIhKHCmVLJ7F-13">
          <mxGeometry y="60" width="116" height="30" as="geometry" />
        </mxCell>
        <mxCell id="jiN-n-44MIhKHCmVLJ7F-16" value="Fin" style="text;strokeColor=none;fillColor=none;align=left;verticalAlign=middle;spacingLeft=4;spacingRight=4;overflow=hidden;points=[[0,0.5],[1,0.5]];portConstraint=eastwest;rotatable=0;whiteSpace=wrap;html=1;" vertex="1" parent="jiN-n-44MIhKHCmVLJ7F-13">
          <mxGeometry y="90" width="116" height="30" as="geometry" />
        </mxCell>
        <mxCell id="jiN-n-44MIhKHCmVLJ7F-17" value="Possède" style="ellipse;whiteSpace=wrap;html=1;" vertex="1" parent="1">
          <mxGeometry x="610" y="390" width="100" height="40" as="geometry" />
        </mxCell>
        <mxCell id="jiN-n-44MIhKHCmVLJ7F-18" value="Possède" style="ellipse;whiteSpace=wrap;html=1;" vertex="1" parent="1">
          <mxGeometry x="1000" y="380" width="100" height="40" as="geometry" />
        </mxCell>
        <mxCell id="jiN-n-44MIhKHCmVLJ7F-19" value="" style="endArrow=none;html=1;rounded=0;entryX=0;entryY=0.5;entryDx=0;entryDy=0;" edge="1" parent="1" target="jiN-n-44MIhKHCmVLJ7F-17">
          <mxGeometry width="50" height="50" relative="1" as="geometry">
            <mxPoint x="530" y="410" as="sourcePoint" />
            <mxPoint x="630" y="420" as="targetPoint" />
          </mxGeometry>
        </mxCell>
        <mxCell id="jiN-n-44MIhKHCmVLJ7F-20" value="" style="endArrow=none;html=1;rounded=0;exitX=-0.022;exitY=0.268;exitDx=0;exitDy=0;exitPerimeter=0;entryX=1;entryY=0.5;entryDx=0;entryDy=0;" edge="1" parent="1" source="jiN-n-44MIhKHCmVLJ7F-15" target="jiN-n-44MIhKHCmVLJ7F-17">
          <mxGeometry width="50" height="50" relative="1" as="geometry">
            <mxPoint x="535" y="419" as="sourcePoint" />
            <mxPoint x="720" y="402" as="targetPoint" />
          </mxGeometry>
        </mxCell>
        <mxCell id="jiN-n-44MIhKHCmVLJ7F-21" value="" style="endArrow=none;html=1;rounded=0;exitX=1.005;exitY=0.824;exitDx=0;exitDy=0;entryX=0;entryY=0.5;entryDx=0;entryDy=0;exitPerimeter=0;" edge="1" parent="1" source="jiN-n-44MIhKHCmVLJ7F-14" target="jiN-n-44MIhKHCmVLJ7F-18">
          <mxGeometry width="50" height="50" relative="1" as="geometry">
            <mxPoint x="802" y="411" as="sourcePoint" />
            <mxPoint x="730" y="412" as="targetPoint" />
          </mxGeometry>
        </mxCell>
        <mxCell id="jiN-n-44MIhKHCmVLJ7F-22" value="" style="endArrow=none;html=1;rounded=0;exitX=-0.006;exitY=0.998;exitDx=0;exitDy=0;exitPerimeter=0;entryX=1;entryY=0.5;entryDx=0;entryDy=0;" edge="1" parent="1" source="jiN-n-44MIhKHCmVLJ7F-10" target="jiN-n-44MIhKHCmVLJ7F-18">
          <mxGeometry width="50" height="50" relative="1" as="geometry">
            <mxPoint x="812" y="421" as="sourcePoint" />
            <mxPoint x="740" y="422" as="targetPoint" />
          </mxGeometry>
        </mxCell>
        <mxCell id="jiN-n-44MIhKHCmVLJ7F-24" value="1.1" style="text;html=1;align=center;verticalAlign=middle;resizable=0;points=[];autosize=1;strokeColor=none;fillColor=none;" vertex="1" parent="1">
          <mxGeometry x="750" y="385" width="40" height="30" as="geometry" />
        </mxCell>
        <mxCell id="jiN-n-44MIhKHCmVLJ7F-25" value="1.n" style="text;html=1;align=center;verticalAlign=middle;resizable=0;points=[];autosize=1;strokeColor=none;fillColor=none;" vertex="1" parent="1">
          <mxGeometry x="520" y="388" width="40" height="30" as="geometry" />
        </mxCell>
        <mxCell id="jiN-n-44MIhKHCmVLJ7F-26" value="1.1" style="text;html=1;align=center;verticalAlign=middle;resizable=0;points=[];autosize=1;strokeColor=none;fillColor=none;" vertex="1" parent="1">
          <mxGeometry x="1140" y="378" width="40" height="30" as="geometry" />
        </mxCell>
        <mxCell id="jiN-n-44MIhKHCmVLJ7F-27" value="0.n" style="text;html=1;align=center;verticalAlign=middle;resizable=0;points=[];autosize=1;strokeColor=none;fillColor=none;" vertex="1" parent="1">
          <mxGeometry x="900" y="370" width="40" height="30" as="geometry" />
        </mxCell>
        <mxCell id="jiN-n-44MIhKHCmVLJ7F-28" value="" style="endArrow=none;html=1;rounded=0;exitX=1;exitY=0.5;exitDx=0;exitDy=0;entryX=0.031;entryY=0.318;entryDx=0;entryDy=0;entryPerimeter=0;" edge="1" parent="1" source="jiN-n-44MIhKHCmVLJ7F-7" target="jiN-n-44MIhKHCmVLJ7F-29">
          <mxGeometry width="50" height="50" relative="1" as="geometry">
            <mxPoint x="1060" y="290" as="sourcePoint" />
            <mxPoint x="1110" y="240" as="targetPoint" />
          </mxGeometry>
        </mxCell>
        <mxCell id="jiN-n-44MIhKHCmVLJ7F-29" value="Possède" style="ellipse;whiteSpace=wrap;html=1;" vertex="1" parent="1">
          <mxGeometry x="1050" y="200" width="100" height="40" as="geometry" />
        </mxCell>
        <mxCell id="jiN-n-44MIhKHCmVLJ7F-30" value="" style="endArrow=none;html=1;rounded=0;exitX=0.5;exitY=0;exitDx=0;exitDy=0;entryX=1;entryY=1;entryDx=0;entryDy=0;" edge="1" parent="1" source="jiN-n-44MIhKHCmVLJ7F-9" target="jiN-n-44MIhKHCmVLJ7F-29">
          <mxGeometry width="50" height="50" relative="1" as="geometry">
            <mxPoint x="928" y="215" as="sourcePoint" />
            <mxPoint x="1023" y="233" as="targetPoint" />
          </mxGeometry>
        </mxCell>
        <mxCell id="jiN-n-44MIhKHCmVLJ7F-31" value="1.1" style="text;html=1;align=center;verticalAlign=middle;resizable=0;points=[];autosize=1;strokeColor=none;fillColor=none;" vertex="1" parent="1">
          <mxGeometry x="1220" y="318" width="40" height="30" as="geometry" />
        </mxCell>
        <mxCell id="jiN-n-44MIhKHCmVLJ7F-32" value="0.n" style="text;html=1;align=center;verticalAlign=middle;resizable=0;points=[];autosize=1;strokeColor=none;fillColor=none;" vertex="1" parent="1">
          <mxGeometry x="910" y="200" width="40" height="30" as="geometry" />
        </mxCell>
      </root>
    </mxGraphModel>
  </diagram>
</mxfile>
